<?xml version="1.0" encoding="utf-8"?>
<!-- Generator: Adobe Illustrator 16.0.0, SVG Export Plug-In . SVG Version: 6.00 Build 0)  -->
<!DOCTYPE svg PUBLIC "-//W3C//DTD SVG 1.1//EN" "http://www.w3.org/Graphics/SVG/1.1/DTD/svg11.dtd">
<svg version="1.1" id="Layer_1" xmlns="http://www.w3.org/2000/svg" xmlns:xlink="http://www.w3.org/1999/xlink" x="0px" y="0px"
	 width="500px" height="500px" viewBox="0 0 500 500" enable-background="new 0 0 500 500" xml:space="preserve">
<g>
	<circle fill-rule="evenodd" clip-rule="evenodd" fill="#095677" cx="249" cy="249.5" r="243"/>
	<rect x="6" y="192.911" fill-rule="evenodd" clip-rule="evenodd" fill="#FFFFFF" width="486" height="117.172"/>
	<g>
		<path fill="#444444" d="M23.341,228.673h6.977v49.731h-6.977V228.673z M26.728,228.673h28.559v6.635H26.728V228.673z
			 M26.728,250.392h24.797v6.636H26.728V250.392z M26.728,271.769h28.559v6.636H26.728V271.769z"/>
		<path fill="#444444" d="M65.205,228.673h6.978v49.731h-6.978V228.673z M68.694,271.769h28.457v6.636H68.694V271.769z"/>
		<path fill="#444444" d="M105.36,228.673h6.977v49.731h-6.977V228.673z M108.747,228.673h28.56v6.635h-28.56V228.673z
			 M108.747,250.392h24.796v6.636h-24.796V250.392z M108.747,271.769h28.56v6.636h-28.56V271.769z"/>
		<path fill="#444444" d="M154.202,278.405h-6.978v-49.731h6.978V278.405z"/>
		<path fill="#444444" d="M177.631,278.917c0,0-1.306-0.764-3.917-2.292c-2.611-1.527-4.634-3.693-6.07-6.498
			c-1.437-2.805-2.155-6.054-2.155-9.748v-13.646c0-3.694,0.719-6.943,2.155-9.748c1.436-2.805,3.459-4.977,6.07-6.516
			c2.611-1.539,5.638-2.309,9.082-2.309c2.85,0,5.472,0.611,7.867,1.83c2.394,1.22,4.395,2.948,6.002,5.182
			c1.608,2.234,2.696,4.822,3.267,7.765h-7.149c-0.433-1.551-1.157-2.937-2.172-4.156c-1.015-1.219-2.206-2.16-3.574-2.822
			c-1.368-0.661-2.781-0.992-4.241-0.992c-2.03,0-3.809,0.491-5.335,1.471c-1.528,0.98-2.714,2.355-3.558,4.122
			c-0.844,1.768-1.266,3.825-1.266,6.174v13.646c0,2.326,0.422,4.377,1.266,6.157c0.844,1.779,2.029,3.152,3.558,4.121
			c1.527,0.97,3.306,1.454,5.335,1.454c1.482,0,2.901-0.308,4.259-0.923c1.355-0.616,2.542-1.527,3.556-2.736
			c1.015-1.208,1.739-2.646,2.172-4.311h7.149c-0.57,2.942-1.665,5.53-3.284,7.765c-1.62,2.234-3.625,3.962-6.02,5.182
			c-2.395,1.22-5.005,1.83-7.832,1.83C179.353,278.917,177.631,278.917,177.631,278.917z M176.468,292.223l1.437-4.789
			c1.095,0.319,2.178,0.479,3.25,0.479c1.253,0,2.189-0.142,2.804-0.427c0.615-0.286,0.924-0.724,0.924-1.317
			c0-0.57-0.41-0.992-1.231-1.265c-0.821-0.274-2.075-0.411-3.763-0.411l2.976-3.968c2.69,0,4.703,0.508,6.037,1.522
			c1.334,1.014,2.001,2.548,2.001,4.6c0,2.075-0.73,3.625-2.189,4.651c-1.459,1.026-3.659,1.54-6.6,1.54
			C179.831,292.838,177.951,292.633,176.468,292.223z M185.019,276.318v8.242l-5.677-0.068v-8.174H185.019z"/>
		<path fill="#444444" d="M217.136,276.643c-2.646-1.516-4.691-3.659-6.14-6.431c-1.448-2.77-2.172-5.979-2.172-9.628v-14.091
			c0-3.647,0.724-6.858,2.172-9.628c1.449-2.771,3.494-4.913,6.14-6.431c2.645-1.516,5.7-2.274,9.166-2.274s6.521,0.758,9.167,2.274
			c2.644,1.518,4.69,3.66,6.139,6.431s2.172,5.981,2.172,9.628v14.091c0,3.648-0.724,6.858-2.172,9.628
			c-1.448,2.771-3.495,4.915-6.139,6.431c-2.646,1.517-5.701,2.274-9.167,2.274S219.78,278.16,217.136,276.643z M230.543,224.945
			c-0.638-0.113-1.231-0.268-1.778-0.461c-0.547-0.194-1.118-0.428-1.71-0.702l-0.103-0.034c-0.342-0.182-0.679-0.359-1.01-0.53
			c-0.33-0.171-0.655-0.347-0.974-0.53c-0.844-0.501-1.545-0.872-2.103-1.112c-0.559-0.239-1.112-0.36-1.659-0.36
			c-0.912,0-1.596,0.257-2.052,0.77c-0.456,0.513-0.684,1.283-0.684,2.309v0.718h-5.404v-0.855c0-2.964,0.581-5.181,1.745-6.652
			c1.163-1.471,2.907-2.206,5.233-2.206c1.299,0,2.428,0.16,3.386,0.479c0.958,0.319,2.04,0.776,3.249,1.367l0.102,0.069
			c0.206,0.114,0.405,0.222,0.599,0.326c0.194,0.102,0.381,0.21,0.564,0.325c0.798,0.457,1.447,0.792,1.949,1.009
			c0.502,0.218,1.003,0.325,1.505,0.325c0.912,0,1.596-0.273,2.053-0.821c0.455-0.547,0.684-1.379,0.684-2.496v-0.685h5.404v0.821
			c0,3.033-0.576,5.307-1.728,6.823c-1.151,1.518-2.89,2.275-5.215,2.275C231.865,225.116,231.181,225.059,230.543,224.945z
			 M231.723,270.657c1.562-0.923,2.771-2.234,3.626-3.934c0.854-1.698,1.282-3.665,1.282-5.899v-14.57
			c0-2.235-0.428-4.202-1.282-5.9c-0.856-1.699-2.064-3.01-3.626-3.934c-1.561-0.924-3.369-1.385-5.421-1.385
			s-3.86,0.461-5.421,1.385c-1.562,0.923-2.771,2.234-3.626,3.934c-0.855,1.699-1.282,3.665-1.282,5.9v14.57
			c0,2.235,0.427,4.202,1.282,5.899c0.855,1.7,2.064,3.01,3.626,3.934c1.561,0.924,3.369,1.386,5.421,1.386
			S230.162,271.582,231.723,270.657z"/>
		<path fill="#444444" d="M255.066,228.673h6.978v49.731h-6.978V228.673z M258.453,228.673h28.56v6.635h-28.56V228.673z
			 M258.453,250.392h24.797v6.636h-24.797V250.392z M258.453,271.769h28.56v6.636h-28.56V271.769z"/>
		<path fill="#444444" d="M308.286,278.917c0,0-1.072-0.229-3.214-0.684c-2.144-0.456-4.144-1.14-6.003-2.053
			c-1.858-0.911-3.597-2.051-5.215-3.42l4.343-5.335c1.893,1.642,3.979,2.873,6.26,3.694c2.28,0.821,4.754,1.231,7.422,1.231
			c3.603,0,6.396-0.667,8.379-2c1.984-1.334,2.977-3.221,2.977-5.662v-0.033c0-1.733-0.451-3.107-1.352-4.122
			c-0.901-1.015-2.064-1.766-3.488-2.257c-1.425-0.49-3.267-0.941-5.523-1.351c-0.069-0.022-0.144-0.034-0.223-0.034
			c-0.081,0-0.154-0.012-0.222-0.035l-0.513-0.103c-3.329-0.569-6.037-1.213-8.123-1.932c-2.086-0.719-3.871-2.029-5.353-3.934
			c-1.483-1.903-2.223-4.611-2.223-8.123v-0.034c0-3.078,0.689-5.706,2.068-7.883c1.379-2.178,3.392-3.837,6.038-4.977
			c2.645-1.14,5.825-1.71,9.542-1.71c1.779,0,3.528,0.194,5.25,0.581c1.721,0.388,3.42,0.963,5.096,1.728
			c1.676,0.763,3.323,1.727,4.942,2.89l-3.967,5.541c-1.893-1.391-3.78-2.434-5.661-3.13c-1.88-0.695-3.768-1.043-5.66-1.043
			c-3.398,0-6.037,0.679-7.917,2.036c-1.882,1.356-2.822,3.278-2.822,5.763v0.034c0,1.71,0.484,3.056,1.453,4.036
			c0.969,0.98,2.177,1.705,3.626,2.171c1.448,0.468,3.46,0.953,6.037,1.454c0.091,0.023,0.176,0.041,0.257,0.052
			c0.079,0.012,0.165,0.029,0.256,0.051c0.114,0.023,0.239,0.046,0.376,0.068c0.137,0.022,0.262,0.047,0.377,0.069
			c3.009,0.615,5.523,1.346,7.541,2.189c2.018,0.844,3.706,2.206,5.063,4.088c1.356,1.88,2.035,4.452,2.035,7.712v0.068
			c0,3.033-0.718,5.626-2.156,7.781c-1.436,2.155-3.517,3.797-6.241,4.925c-2.726,1.129-6.015,1.693-9.868,1.693
			C309.484,278.917,308.286,278.917,308.286,278.917z"/>
		<path fill="#444444" d="M350.255,272.35l17.34-23.121c1.003-1.322,1.784-2.696,2.344-4.122c0.558-1.425,0.838-2.753,0.838-3.985
			v-0.068c0-1.983-0.583-3.523-1.745-4.617c-1.163-1.094-2.816-1.642-4.96-1.642c-2.029,0-3.671,0.598-4.925,1.796
			c-1.254,1.197-2.018,2.89-2.292,5.079v0.035h-7.217v-0.035c0.411-2.85,1.248-5.284,2.515-7.302c1.265-2.018,2.9-3.557,4.907-4.617
			s4.321-1.59,6.943-1.59c2.964,0,5.496,0.507,7.593,1.521c2.098,1.015,3.694,2.492,4.789,4.43c1.095,1.938,1.642,4.275,1.642,7.011
			v0.035c0,1.756-0.365,3.592-1.094,5.507c-0.73,1.915-1.745,3.762-3.044,5.54l-14.399,19.564h18.812v6.636h-28.046V272.35z"/>
		<path fill="#444444" d="M390.802,275.189c-2.405-2.484-3.608-5.952-3.608-10.398v-22.608c0-4.468,1.208-7.94,3.625-10.415
			c2.417-2.474,5.939-3.711,10.569-3.711c4.651,0,8.18,1.231,10.586,3.694c2.405,2.463,3.609,5.94,3.609,10.432v22.608
			c0,4.469-1.209,7.941-3.626,10.415s-5.939,3.711-10.568,3.711C396.736,278.917,393.208,277.675,390.802,275.189z M406.843,270.35
			c1.174-1.289,1.761-3.142,1.761-5.559v-22.608c0-2.417-0.582-4.27-1.744-5.559c-1.163-1.287-2.987-1.932-5.473-1.932
			s-4.31,0.645-5.473,1.932c-1.163,1.289-1.745,3.142-1.745,5.559v22.608c0,2.417,0.587,4.27,1.762,5.559
			c1.173,1.288,2.993,1.932,5.455,1.932C403.85,272.282,405.668,271.638,406.843,270.35z"/>
		<path fill="#444444" d="M437.849,278.405h-6.978v-42.139l-7.08,4.344v-7.217l7.08-4.72h6.978V278.405z"/>
		<path fill="#444444" d="M455.771,277.207c-2.28-1.14-4.042-2.753-5.285-4.839c-1.243-2.086-1.864-4.509-1.864-7.268v-0.821
			c0-2.484,0.621-4.822,1.864-7.012c1.242-2.189,2.902-3.842,4.977-4.959c-1.756-0.958-3.165-2.342-4.224-4.155
			c-1.061-1.813-1.59-3.723-1.59-5.73v-1.197c0-2.6,0.582-4.885,1.744-6.858c1.163-1.972,2.804-3.5,4.925-4.583
			c2.121-1.083,4.583-1.625,7.387-1.625s5.268,0.542,7.389,1.625c2.12,1.083,3.762,2.611,4.925,4.583
			c1.163,1.973,1.744,4.258,1.744,6.858v1.197c0,2.053-0.541,3.979-1.625,5.781c-1.083,1.801-2.514,3.169-4.292,4.104
			c2.097,1.141,3.779,2.8,5.045,4.978c1.265,2.177,1.898,4.509,1.898,6.994v0.821c0,2.759-0.622,5.182-1.864,7.268
			c-1.243,2.086-3.005,3.7-5.285,4.839c-2.28,1.141-4.925,1.71-7.936,1.71C460.696,278.917,458.05,278.348,455.771,277.207z
			 M467.981,271.256c1.231-0.639,2.183-1.533,2.856-2.685c0.672-1.15,1.009-2.479,1.009-3.985v-0.479
			c0-1.527-0.337-2.867-1.009-4.019c-0.673-1.15-1.625-2.046-2.856-2.685c-1.231-0.638-2.657-0.958-4.276-0.958
			c-1.619,0-3.043,0.319-4.275,0.958c-1.231,0.639-2.183,1.539-2.856,2.702c-0.672,1.163-1.009,2.508-1.009,4.035v0.514
			c0,1.504,0.337,2.827,1.009,3.967c0.673,1.14,1.625,2.024,2.856,2.651c1.232,0.627,2.657,0.94,4.275,0.94
			C465.324,272.213,466.75,271.894,467.981,271.256z M467.399,248.835c1.071-0.604,1.904-1.465,2.497-2.581
			c0.593-1.117,0.89-2.406,0.89-3.866v-0.479c0-1.391-0.297-2.622-0.89-3.694c-0.593-1.071-1.425-1.898-2.497-2.479
			c-1.072-0.582-2.303-0.872-3.694-0.872c-1.39,0-2.622,0.291-3.693,0.872c-1.072,0.581-1.905,1.408-2.498,2.479
			c-0.593,1.072-0.89,2.315-0.89,3.728v0.514c0,1.437,0.296,2.707,0.89,3.813c0.593,1.106,1.426,1.961,2.498,2.565
			c1.071,0.604,2.303,0.907,3.693,0.907C465.096,249.742,466.327,249.44,467.399,248.835z"/>
	</g>
</g>
</svg>
